<?xml version="1.0" encoding="utf-8" ?>
<svg baseProfile="tiny" height="100%" version="1.2" width="100%" xmlns="http://www.w3.org/2000/svg" xmlns:ev="http://www.w3.org/2001/xml-events" xmlns:xlink="http://www.w3.org/1999/xlink"><defs /><rect fill="white" height="400" width="600" x="0" y="0" /><path d="M 250,354 L 255,367 L 266,377 L 276,380 L 284,380 L 297,375 L 307,364 L 310,354 L 305,366 L 296,375 L 284,380 L 276,380 L 264,375 L 255,366 Z" fill="#ffffff" stroke="none" /><path d="M 382,352 L 415,380 L 436,376 L 451,352 L 485,380 L 507,375 L 521,352 L 544,376 L 565,380 L 599,352 L 564,380 L 545,376 L 530,352 L 494,380 L 474,375 L 460,352 L 424,380 L 405,376 Z" fill="#48bec8" stroke="none" /><path d="M 310,350 L 310,351 L 311,352 L 318,352 L 311,352 L 310,351 L 310,350 L 311,349 L 318,349 L 320,351 L 320,350 L 319,350 L 318,349 L 311,349 Z" fill="#ff6b6b" stroke="none" /><path d="M 380,351 L 416,320 L 435,324 L 450,349 L 486,320 L 506,325 L 520,349 L 556,320 L 575,324 L 599,349 L 565,320 L 544,324 L 529,349 L 499,321 L 476,323 L 451,349 L 436,324 L 415,320 Z" fill="#ffeead" stroke="none" /><path d="M 250,346 L 253,337 L 264,325 L 272,321 L 284,320 L 293,323 L 305,334 L 310,347 L 305,333 L 294,323 L 284,320 L 276,320 L 263,325 L 253,336 Z" fill="#96ceb4" stroke="none" /><path d="M 30,350 L 66,320 L 100,349 L 136,320 L 180,349 L 214,320 L 250,351 L 214,380 L 180,352 L 144,380 L 110,352 L 74,380 L 32,352 L 54,376 L 109,352 L 145,380 L 179,352 L 219,379 L 250,350 L 215,320 L 179,349 L 149,321 L 101,349 L 65,320 Z" fill="#ffffff" stroke="none" /><path d="M 285,284 L 290,297 L 301,307 L 311,310 L 319,310 L 332,305 L 342,294 L 345,284 L 340,296 L 331,305 L 319,310 L 311,310 L 299,305 L 290,296 Z" fill="#48bec8" stroke="none" /><path d="M 417,282 L 450,310 L 471,306 L 486,282 L 520,310 L 542,305 L 556,282 L 565,283 L 579,306 L 599,310 L 580,306 L 565,282 L 555,282 L 550,296 L 529,310 L 509,305 L 495,282 L 485,282 L 481,295 L 459,310 L 440,306 L 425,282 Z" fill="#ff6b6b" stroke="none" /><path d="M 345,280 L 345,281 L 346,282 L 353,282 L 346,282 L 345,281 L 345,280 L 346,279 L 353,279 L 355,281 L 355,280 L 354,280 L 353,279 L 346,279 Z" fill="#96ceb4" stroke="none" /><path d="M 0,279 L 3,279 L 5,281 L 5,280 L 4,280 L 3,279 Z" fill="#ffffff" stroke="none" /><path d="M 415,281 L 451,250 L 470,254 L 485,279 L 495,279 L 500,264 L 521,250 L 538,253 L 555,279 L 565,279 L 580,254 L 599,250 L 579,254 L 564,279 L 534,251 L 511,253 L 495,278 L 486,279 L 471,254 L 450,250 Z" fill="#48bec8" stroke="none" /><path d="M 285,276 L 288,267 L 299,255 L 307,251 L 319,250 L 328,253 L 340,264 L 345,277 L 340,263 L 329,253 L 319,250 L 311,250 L 298,255 L 288,266 Z" fill="#ff6b6b" stroke="none" /><path d="M 65,280 L 101,250 L 135,279 L 171,250 L 215,279 L 249,250 L 285,281 L 249,310 L 215,282 L 179,310 L 145,282 L 109,310 L 67,282 L 89,306 L 144,282 L 180,310 L 214,282 L 254,309 L 285,280 L 250,250 L 214,279 L 184,251 L 136,279 L 100,250 Z" fill="#ffeead" stroke="none" /><path d="M 390,214 L 395,227 L 406,237 L 416,240 L 424,240 L 437,235 L 447,224 L 450,214 L 445,226 L 436,235 L 424,240 L 416,240 L 404,235 L 395,226 Z" fill="#96ceb4" stroke="none" /><path d="M 40,214 L 45,227 L 56,237 L 66,240 L 74,240 L 87,235 L 97,224 L 100,214 L 95,226 L 86,235 L 74,240 L 66,240 L 54,235 L 45,226 Z" fill="#ffffff" stroke="none" /><path d="M 522,212 L 529,212 L 534,226 L 544,236 L 555,240 L 576,236 L 586,226 L 590,213 L 599,212 L 590,212 L 586,225 L 575,236 L 564,240 L 545,236 L 534,225 L 530,212 Z" fill="#48bec8" stroke="none" /><path d="M 450,210 L 450,211 L 451,212 L 458,212 L 451,212 L 450,211 L 450,210 L 451,209 L 458,209 L 460,211 L 460,210 L 459,210 L 458,209 L 451,209 Z" fill="#ff6b6b" stroke="none" /><path d="M 100,210 L 100,211 L 101,212 L 108,212 L 101,212 L 100,211 L 100,210 L 101,209 L 108,209 L 110,211 L 110,210 L 109,210 L 108,209 L 101,209 Z" fill="#ffeead" stroke="none" /><path d="M 520,211 L 530,209 L 534,195 L 545,184 L 556,180 L 575,184 L 586,195 L 590,209 L 599,209 L 590,208 L 586,194 L 576,184 L 555,180 L 544,184 L 534,194 L 529,209 Z" fill="#96ceb4" stroke="none" /><path d="M 390,206 L 393,197 L 404,185 L 412,181 L 424,180 L 433,183 L 445,194 L 450,207 L 445,193 L 434,183 L 424,180 L 416,180 L 403,185 L 393,196 Z" fill="#ffffff" stroke="none" /><path d="M 170,210 L 206,180 L 240,209 L 276,180 L 320,209 L 354,180 L 390,211 L 354,240 L 320,212 L 284,240 L 250,212 L 214,240 L 172,212 L 194,236 L 249,212 L 285,240 L 319,212 L 359,239 L 390,210 L 355,180 L 319,209 L 289,181 L 241,209 L 205,180 Z" fill="#48bec8" stroke="none" /><path d="M 40,206 L 43,197 L 54,185 L 62,181 L 74,180 L 83,183 L 95,194 L 100,207 L 95,193 L 84,183 L 74,180 L 66,180 L 53,185 L 43,196 Z" fill="#ff6b6b" stroke="none" /><path d="M 0,180 L 15,184 L 26,195 L 30,209 L 40,210 L 30,212 L 26,225 L 15,236 L 0,240 L 16,236 L 26,226 L 31,212 L 40,210 L 30,208 L 26,194 L 16,184 Z" fill="#ffeead" stroke="none" /><path d="M 425,144 L 430,157 L 441,167 L 451,170 L 459,170 L 472,165 L 482,154 L 485,144 L 480,156 L 471,165 L 459,170 L 451,170 L 439,165 L 430,156 Z" fill="#96ceb4" stroke="none" /><path d="M 75,144 L 80,157 L 91,167 L 101,170 L 109,170 L 122,165 L 132,154 L 135,144 L 130,156 L 121,165 L 109,170 L 101,170 L 89,165 L 80,156 Z" fill="#ffffff" stroke="none" /><path d="M 557,142 L 565,143 L 569,156 L 579,166 L 590,170 L 599,170 L 591,170 L 580,166 L 569,155 L 565,142 Z" fill="#48bec8" stroke="none" /><path d="M 485,140 L 485,141 L 486,142 L 493,142 L 486,142 L 485,141 L 485,140 L 486,139 L 493,139 L 495,141 L 495,140 L 494,140 L 493,139 L 486,139 Z" fill="#ff6b6b" stroke="none" /><path d="M 135,140 L 135,141 L 136,142 L 143,142 L 136,142 L 135,141 L 135,140 L 136,139 L 143,139 L 145,141 L 145,140 L 144,140 L 143,139 L 136,139 Z" fill="#ffeead" stroke="none" /><path d="M 599,110 L 590,110 L 579,114 L 569,124 L 565,138 L 557,139 L 555,141 L 557,139 L 565,139 L 569,125 L 580,114 L 591,110 Z" fill="#96ceb4" stroke="none" /><path d="M 425,136 L 428,127 L 439,115 L 447,111 L 459,110 L 468,113 L 480,124 L 485,137 L 480,123 L 469,113 L 459,110 L 451,110 L 438,115 L 428,126 Z" fill="#ffffff" stroke="none" /><path d="M 205,140 L 241,110 L 275,139 L 311,110 L 355,139 L 389,110 L 425,141 L 389,170 L 355,142 L 319,170 L 285,142 L 249,170 L 207,142 L 229,166 L 284,142 L 320,170 L 354,142 L 394,169 L 425,140 L 390,110 L 354,139 L 324,111 L 276,139 L 240,110 Z" fill="#48bec8" stroke="none" /><path d="M 75,136 L 78,127 L 89,115 L 97,111 L 109,110 L 118,113 L 130,124 L 135,137 L 130,123 L 119,113 L 109,110 L 101,110 L 88,115 L 78,126 Z" fill="#ff6b6b" stroke="none" /><path d="M 30,110 L 19,114 L 0,139 L 20,114 L 39,110 L 61,125 L 65,139 L 75,140 L 65,142 L 61,155 L 39,170 L 20,166 L 0,142 L 19,166 L 40,170 L 75,140 L 65,138 L 51,114 Z" fill="#ffeead" stroke="none" /><path d="M 530,74 L 535,87 L 546,97 L 556,100 L 564,100 L 577,95 L 587,84 L 590,74 L 585,86 L 576,95 L 564,100 L 556,100 L 544,95 L 535,86 Z" fill="#96ceb4" stroke="none" /><path d="M 180,74 L 185,87 L 196,97 L 206,100 L 214,100 L 227,95 L 237,84 L 240,74 L 235,86 L 226,95 L 214,100 L 206,100 L 194,95 L 185,86 Z" fill="#ffffff" stroke="none" /><path d="M 590,70 L 591,69 L 599,69 L 591,69 L 590,70 L 590,71 L 591,72 L 599,72 L 591,72 L 590,71 Z" fill="#48bec8" stroke="none" /><path d="M 240,70 L 240,71 L 241,72 L 248,72 L 241,72 L 240,71 L 240,70 L 241,69 L 248,69 L 250,71 L 250,70 L 249,70 L 248,69 L 241,69 Z" fill="#ff6b6b" stroke="none" /><path d="M 530,66 L 533,57 L 544,45 L 552,41 L 564,40 L 573,43 L 585,54 L 590,67 L 585,53 L 574,43 L 564,40 L 556,40 L 543,45 L 533,56 Z" fill="#ffeead" stroke="none" /><path d="M 310,70 L 346,40 L 380,69 L 416,40 L 460,69 L 494,40 L 530,71 L 494,100 L 460,72 L 424,100 L 390,72 L 354,100 L 312,72 L 334,96 L 389,72 L 425,100 L 459,72 L 499,99 L 530,70 L 495,40 L 459,69 L 429,41 L 381,69 L 345,40 Z" fill="#96ceb4" stroke="none" /><path d="M 180,66 L 183,57 L 194,45 L 202,41 L 214,40 L 223,43 L 235,54 L 240,67 L 235,53 L 224,43 L 214,40 L 206,40 L 193,45 L 183,56 Z" fill="#ffffff" stroke="none" /><path d="M 0,40 L 30,69 L 66,40 L 110,69 L 144,40 L 180,71 L 144,100 L 110,72 L 74,100 L 30,72 L 0,100 L 31,72 L 65,100 L 101,72 L 145,100 L 180,71 L 145,40 L 109,69 L 75,40 L 31,69 Z" fill="#48bec8" stroke="none" /><path d="M 565,4 L 568,14 L 578,25 L 591,30 L 599,30 L 591,30 L 579,25 L 570,16 Z" fill="#ff6b6b" stroke="none" /><path d="M 215,4 L 220,17 L 231,27 L 241,30 L 249,30 L 262,25 L 272,14 L 275,4 L 270,16 L 261,25 L 249,30 L 241,30 L 229,25 L 220,16 Z" fill="#ffeead" stroke="none" /><path d="M 345,0 L 380,30 L 401,26 L 417,1 L 446,29 L 469,27 L 493,1 L 509,26 L 530,30 L 565,1 L 555,0 L 551,15 L 529,30 L 510,26 L 495,0 L 485,0 L 463,29 L 439,25 L 425,0 L 400,26 L 381,30 Z" fill="#48bec8" stroke="none" /><path d="M 275,0 L 275,1 L 285,1 L 285,0 L 284,1 L 276,1 Z" fill="#ff6b6b" stroke="none" /><path d="M 0,1 L 30,30 L 51,26 L 67,1 L 96,29 L 119,27 L 143,1 L 159,26 L 180,30 L 215,0 L 179,30 L 160,26 L 145,0 L 109,30 L 89,25 L 75,0 L 39,30 L 20,26 Z" fill="#ffeead" stroke="none" /></svg>